<?xml version="1.0" encoding="UTF-8"?>
<!DOCTYPE svg PUBLIC "-//W3C//DTD SVG 1.1//EN" "http://www.w3.org/Graphics/SVG/1.1/DTD/svg11.dtd">
<!-- Creator: CorelDRAW -->
<svg xmlns="http://www.w3.org/2000/svg" xml:space="preserve" width="6.82666in" height="6.82666in" style="shape-rendering:geometricPrecision; text-rendering:geometricPrecision; image-rendering:optimizeQuality; fill-rule:evenodd; clip-rule:evenodd"
viewBox="0 0 6.82666 6.82666"
 xmlns:xlink="http://www.w3.org/1999/xlink">
 <defs>
  <style type="text/css">
   <![CDATA[
    .fil2 {fill:none}
    .fil3 {fill:#4E342E}
    .fil4 {fill:#6D4C41}
    .fil5 {fill:#8D6E63}
    .fil6 {fill:#A1887F}
    .fil1 {fill:#C0CA33}
    .fil0 {fill:#DCE775}
    .fil7 {fill:#5D4037;fill-rule:nonzero}
    .fil8 {fill:#6D4C41;fill-rule:nonzero}
    .fil9 {fill:#FFFFFE;fill-rule:nonzero}
   ]]>
  </style>
   <clipPath id="id0">
    <path d="M3.41333 -3.93701e-006c1.88513,0 3.41333,1.5282 3.41333,3.41333 0,1.88513 -1.5282,3.41333 -3.41333,3.41333 -1.88513,0 -3.41333,-1.5282 -3.41333,-3.41333 0,-1.88513 1.5282,-3.41333 3.41333,-3.41333z"/>
   </clipPath>
 </defs>
 <g id="Layer_x0020_1">
  <metadata id="CorelCorpID_0Corel-Layer"/>
  <path class="fil0" d="M3.41333 -3.93701e-006c1.88513,0 3.41333,1.5282 3.41333,3.41333 0,1.88513 -1.5282,3.41333 -3.41333,3.41333 -1.88513,0 -3.41333,-1.5282 -3.41333,-3.41333 0,-1.88513 1.5282,-3.41333 3.41333,-3.41333z"/>
  <g style="clip-path:url(#id0)">
   <g id="_357808040">
    <g>
     <polygon id="_3536952721" class="fil1" points="3.64267,1.77006 7.42894,5.55633 7.41994,5.56649 7.41186,5.57661 7.40465,5.58667 7.3983,5.59668 7.39277,5.60664 7.38802,5.61654 7.38404,5.6264 7.38078,5.6362 7.37822,5.64595 7.37633,5.65566 7.37509,5.66531 7.37444,5.67491 7.37438,5.68446 7.37486,5.69396 7.37586,5.70341 7.37734,5.71281 7.37929,5.72216 7.38165,5.73146 7.38442,5.74071 7.38755,5.74991 7.39101,5.75906 7.39478,5.76817 7.39883,5.77722 7.40312,5.78623 7.40762,5.79519 7.41231,5.8041 7.41715,5.81296 7.42211,5.82178 7.42717,5.83055 7.4323,5.83927 7.43745,5.84794 7.4426,5.85657 3.65633,2.0703 3.65118,2.06167 3.64603,2.053 3.64091,2.04428 3.63585,2.03551 3.63088,2.02669 3.62604,2.01783 3.62135,2.00892 3.61685,1.99996 3.61256,1.99095 3.60852,1.9819 3.60474,1.97279 3.60128,1.96364 3.59815,1.95444 3.59539,1.94519 3.59302,1.93589 3.59107,1.92654 3.58959,1.91713 3.58859,1.90769 3.58811,1.89819 3.58817,1.88864 3.58882,1.87904 3.59007,1.86939 3.59196,1.85968 3.59452,1.84993 3.59777,1.84013 3.60176,1.83027 3.6065,1.82037 3.61203,1.81041 3.61839,1.8004 3.62559,1.79033 3.63367,1.78022 "/>
     <polygon id="_353695296" class="fil1" points="3.19613,1.77006 6.98239,5.55633 6.9734,5.56649 6.96531,5.57661 6.95811,5.58667 6.95176,5.59668 6.94622,5.60664 6.94148,5.61654 6.9375,5.6264 6.93424,5.6362 6.93168,5.64595 6.92979,5.65566 6.92854,5.66531 6.9279,5.67491 6.92783,5.68446 6.92831,5.69396 6.92931,5.70341 6.9308,5.71281 6.93274,5.72216 6.93511,5.73146 6.93787,5.74071 6.941,5.74991 6.94447,5.75906 6.94824,5.76817 6.95229,5.77722 6.95657,5.78623 6.96108,5.79519 6.96577,5.8041 6.97061,5.81296 6.97557,5.82178 6.98063,5.83055 6.98575,5.83927 6.99091,5.84794 6.99606,5.85657 3.20979,2.0703 3.20464,2.06167 3.19948,2.053 3.19436,2.04428 3.1893,2.03551 3.18434,2.02669 3.1795,2.01783 3.17481,2.00892 3.17031,1.99996 3.16602,1.99095 3.16197,1.9819 3.1582,1.97279 3.15474,1.96364 3.15161,1.95444 3.14884,1.94519 3.14648,1.93589 3.14453,1.92654 3.14305,1.91713 3.14205,1.90769 3.14157,1.89819 3.14163,1.88864 3.14228,1.87904 3.14352,1.86939 3.14541,1.85968 3.14797,1.84993 3.15123,1.84013 3.15521,1.83027 3.15996,1.82037 3.16549,1.81041 3.17184,1.8004 3.17905,1.79033 3.18713,1.78022 "/>
     <polygon id="_353667624" class="fil1" points="3.65633,2.0703 7.4426,5.85657 7.44994,5.86885 7.4572,5.88107 7.46433,5.89324 7.4713,5.90536 7.47806,5.91744 7.48455,5.92947 7.49075,5.94147 7.49661,5.95344 7.50208,5.96538 7.50712,5.9773 7.51169,5.9892 7.51574,6.00109 7.51923,6.01297 7.52212,6.02485 7.52436,6.03673 7.52591,6.04861 7.52673,6.06051 7.52677,6.07243 7.52598,6.08435 7.52434,6.09631 7.52178,6.10829 7.51828,6.12031 7.51378,6.13237 7.50823,6.14446 7.50161,6.15661 7.49386,6.16881 7.48494,6.18106 7.47481,6.19338 7.46343,6.20576 7.45074,6.21821 7.43671,6.23074 7.4213,6.24335 3.63503,2.45707 3.65044,2.44447 3.66447,2.43194 3.67716,2.41949 3.68855,2.40711 3.69868,2.39479 3.70759,2.38254 3.71534,2.37034 3.72196,2.35819 3.72751,2.34609 3.73201,2.33404 3.73552,2.32202 3.73807,2.31004 3.73972,2.29808 3.7405,2.28615 3.74046,2.27424 3.73965,2.26234 3.73809,2.25046 3.73585,2.23858 3.73296,2.2267 3.72947,2.21482 3.72542,2.20293 3.72085,2.19103 3.71581,2.17911 3.71034,2.16717 3.70448,2.1552 3.69828,2.1432 3.69179,2.13117 3.68503,2.11909 3.67807,2.10697 3.67093,2.0948 3.66367,2.08258 "/>
     <polygon id="_353667912" class="fil1" points="2.74958,1.77006 6.53585,5.55633 6.52685,5.56649 6.51877,5.57661 6.51157,5.58667 6.50521,5.59668 6.49968,5.60664 6.49494,5.61654 6.49095,5.6264 6.4877,5.6362 6.48514,5.64595 6.48325,5.65566 6.482,5.66531 6.48135,5.67491 6.48129,5.68446 6.48177,5.69396 6.48277,5.70341 6.48426,5.71281 6.4862,5.72216 6.48857,5.73146 6.49133,5.74071 6.49446,5.74991 6.49793,5.75906 6.5017,5.76817 6.50574,5.77722 6.51003,5.78623 6.51454,5.79519 6.51922,5.8041 6.52406,5.81296 6.52903,5.82178 6.53409,5.83055 6.53921,5.83927 6.54436,5.84794 6.54952,5.85657 2.76325,2.0703 2.75809,2.06167 2.75294,2.053 2.74782,2.04428 2.74276,2.03551 2.7378,2.02669 2.73296,2.01783 2.72827,2.00892 2.72376,1.99996 2.71948,1.99095 2.71543,1.9819 2.71166,1.97279 2.70819,1.96364 2.70506,1.95444 2.7023,1.94519 2.69993,1.93589 2.69799,1.92654 2.6965,1.91713 2.6955,1.90769 2.69502,1.89819 2.69509,1.88864 2.69573,1.87904 2.69698,1.86939 2.69887,1.85968 2.70143,1.84993 2.70469,1.84013 2.70867,1.83027 2.71341,1.82037 2.71894,1.81041 2.7253,1.8004 2.7325,1.79033 2.74059,1.78022 "/>
     <polygon id="_353668416" class="fil1" points="2.76325,2.0703 6.54952,5.85657 6.55685,5.86885 6.56411,5.88107 6.57125,5.89324 6.57821,5.90536 6.58496,5.91744 6.59146,5.92947 6.59766,5.94147 6.60352,5.95344 6.60899,5.96538 6.61403,5.9773 6.6186,5.9892 6.62265,6.00109 6.62614,6.01297 6.62903,6.02485 6.63127,6.03673 6.63282,6.04862 6.63364,6.06051 6.63368,6.07243 6.63289,6.08435 6.63125,6.09631 6.62869,6.1083 6.62519,6.12031 6.62069,6.13237 6.61514,6.14447 6.60852,6.15661 6.60077,6.16881 6.59185,6.18106 6.58172,6.19338 6.57034,6.20576 6.55765,6.21821 6.54362,6.23074 6.5282,6.24335 2.74194,2.45707 2.75735,2.44447 2.77138,2.43194 2.78407,2.41949 2.79546,2.40711 2.80559,2.39479 2.8145,2.38254 2.82225,2.37034 2.82887,2.3582 2.83442,2.3461 2.83892,2.33404 2.84243,2.32202 2.84498,2.31004 2.84663,2.29808 2.84741,2.28615 2.84737,2.27424 2.84656,2.26235 2.845,2.25046 2.84276,2.23858 2.83987,2.2267 2.83638,2.21482 2.83233,2.20293 2.82776,2.19103 2.82272,2.17911 2.81725,2.16717 2.81139,2.1552 2.8052,2.1432 2.7987,2.13117 2.79194,2.11909 2.78498,2.10697 2.77785,2.0948 2.77059,2.08258 "/>
     <polygon id="_353668632" class="fil1" points="4.55661,4.22605 8.34288,8.01232 8.33692,8.03083 8.33078,8.04912 8.32447,8.06717 8.31799,8.08499 8.31134,8.10256 8.30452,8.11987 8.29754,8.13691 8.29038,8.15369 8.28306,8.17019 8.27558,8.1864 8.26793,8.20231 8.26013,8.21793 8.25215,8.23324 8.24402,8.24823 8.23573,8.26289 8.22728,8.27722 8.21867,8.29122 8.20991,8.30487 8.20099,8.31816 8.19191,8.33109 8.18268,8.34365 8.1733,8.35583 8.16376,8.36763 8.15408,8.37903 8.14424,8.39004 8.13426,8.40063 8.12413,8.41081 8.11385,8.42057 8.10343,8.4299 8.09286,8.43878 8.08215,8.44722 8.07129,8.45521 4.28502,4.66894 4.29588,4.66095 4.30659,4.65251 4.31716,4.64363 4.32758,4.6343 4.33786,4.62454 4.348,4.61436 4.35798,4.60376 4.36781,4.59276 4.3775,4.58136 4.38703,4.56956 4.39641,4.55738 4.40564,4.54482 4.41472,4.53189 4.42364,4.51859 4.43241,4.50495 4.44101,4.49095 4.44946,4.47662 4.45776,4.46196 4.46589,4.44696 4.47386,4.43166 4.48167,4.41604 4.48931,4.40013 4.4968,4.38391 4.50411,4.36742 4.51127,4.35064 4.51825,4.33359 4.52507,4.31628 4.53172,4.29872 4.5382,4.2809 4.54451,4.26285 4.55065,4.24456 "/>
     <polygon id="_353668800" class="fil1" points="2.00652,4.66901 5.79279,8.45528 5.78202,8.44739 5.77139,8.43905 5.7609,8.43027 1.97463,4.644 1.98512,4.65278 1.99575,4.66112 "/>
     <polygon id="_353668344" class="fil1" points="4.72076,4.81632 8.50703,8.60259 8.51346,8.60945 8.51894,8.61636 8.52344,8.62333 8.52697,8.63035 8.5295,8.63741 8.53104,8.64452 8.53155,8.65168 8.52946,8.66608 8.52329,8.68029 8.51312,8.6943 8.49906,8.70808 8.4812,8.72162 8.45965,8.73491 8.4345,8.74791 8.40587,8.76062 8.37384,8.77302 8.33852,8.78508 8.30001,8.7968 8.25841,8.80816 8.21382,8.81913 8.16634,8.8297 8.11607,8.83986 8.06312,8.84958 8.00758,8.85885 7.94955,8.86765 7.88913,8.87595 7.82643,8.88376 7.76154,8.89104 7.69456,8.89778 7.62561,8.90396 7.55476,8.90956 7.48213,8.91457 7.40782,8.91897 7.33193,8.92274 7.25456,8.92587 7.1758,8.92833 7.09576,8.93011 7.01454,8.93119 6.93224,8.93156 6.84994,8.93119 6.76872,8.93011 6.68868,8.92833 6.60992,8.92587 6.53255,8.92274 6.45665,8.91897 6.38234,8.91457 6.30972,8.90956 6.23887,8.90396 6.16991,8.89778 6.10294,8.89104 6.03805,8.88376 5.97535,8.87595 5.91493,8.86765 5.8569,8.85885 5.80136,8.84958 5.7484,8.83986 5.69814,8.8297 5.65066,8.81913 5.60607,8.80816 5.56447,8.7968 5.52596,8.78508 5.49064,8.77302 5.45861,8.76062 5.42998,8.74791 5.40483,8.73491 5.38328,8.72162 5.36543,8.70808 1.57916,4.92181 1.59702,4.93535 1.61857,4.94863 1.64371,4.96164 1.67235,4.97435 1.70437,4.98674 1.73969,4.99881 1.7782,5.01053 1.8198,5.02189 1.86439,5.03286 1.91187,5.04343 1.96213,5.05359 2.01509,5.06331 2.07063,5.07257 2.12867,5.08137 2.18908,5.08968 2.25178,5.09748 2.31667,5.10476 2.38365,5.1115 2.45261,5.11769 2.52345,5.12329 2.59607,5.1283 2.67039,5.1327 2.74628,5.13647 2.82365,5.1396 2.90241,5.14206 2.98245,5.14384 3.06367,5.14492 3.14597,5.14528 3.22827,5.14492 3.30949,5.14384 3.38953,5.14206 3.46829,5.1396 3.54567,5.13647 3.62156,5.1327 3.69587,5.1283 3.7685,5.12329 3.83934,5.11769 3.9083,5.1115 3.97527,5.10476 4.04016,5.09748 4.10286,5.08968 4.16328,5.08137 4.22131,5.07257 4.27685,5.06331 4.32981,5.05359 4.38007,5.04343 4.42756,5.03286 4.47214,5.02189 4.51374,5.01053 4.55225,4.99881 4.58757,4.98674 4.6196,4.97435 4.64823,4.96164 4.67338,4.94863 4.69493,4.93535 4.71279,4.92181 4.72685,4.90803 4.73702,4.89402 4.7432,4.87981 4.74528,4.86541 4.74477,4.85825 4.74324,4.85114 4.7407,4.84407 4.73718,4.83706 4.73267,4.83009 4.72719,4.82318 "/>
     <polygon id="_353668680" class="fil1" points="4.46142,2.74097 8.24769,6.52724 8.2712,6.57102 4.48493,2.78475 "/>
     <polygon id="_353668704" class="fil1" points="3.20979,2.0703 6.99606,5.85657 7.0034,5.86885 7.01066,5.88107 7.01779,5.89324 7.02476,5.90536 7.03151,5.91744 7.03801,5.92947 7.04421,5.94147 7.05006,5.95344 7.05554,5.96538 7.06057,5.9773 7.06515,5.9892 7.0692,6.00109 7.07269,6.01297 7.07557,6.02485 7.07781,6.03673 7.07937,6.04862 7.08018,6.06051 7.08022,6.07243 7.07944,6.08435 7.07779,6.09631 7.07524,6.1083 7.07173,6.12031 7.06723,6.13237 7.06169,6.14447 7.05506,6.15661 7.04731,6.16881 7.0384,6.18106 7.02827,6.19338 7.01688,6.20576 7.00419,6.21821 6.99017,6.23074 6.97475,6.24335 3.18848,2.45707 3.2039,2.44447 3.21793,2.43194 3.23061,2.41949 3.242,2.40711 3.25213,2.39479 3.26105,2.38254 3.2688,2.37034 3.27542,2.3582 3.28096,2.3461 3.28546,2.33404 3.28897,2.32202 3.29152,2.31004 3.29317,2.29808 3.29395,2.28615 3.29391,2.27424 3.2931,2.26235 3.29155,2.25046 3.28931,2.23858 3.28642,2.2267 3.28293,2.21482 3.27888,2.20293 3.27431,2.19103 3.26927,2.17911 3.2638,2.16717 3.25794,2.1552 3.25174,2.1432 3.24524,2.13117 3.23849,2.11909 3.23152,2.10697 3.22439,2.0948 3.21713,2.08258 "/>
     <polygon id="_353669016" class="fil1" points="5.14253,3.93741 8.9288,7.72369 8.91418,7.7395 8.89932,7.75425 8.88424,7.76797 8.86893,7.78069 8.85341,7.79246 8.83769,7.8033 8.82176,7.81326 8.80564,7.82237 8.78933,7.83066 8.77285,7.83817 8.75619,7.84494 8.73937,7.85102 8.72239,7.85641 8.70526,7.86118 8.68799,7.86534 8.67058,7.86895 8.65304,7.87203 8.63538,7.87462 8.61761,7.87676 8.59972,7.87848 8.58174,7.87982 8.56366,7.88082 8.54549,7.88151 8.52725,7.88193 8.50893,7.8821 8.49054,7.88208 8.4721,7.8819 8.45361,7.88159 8.43507,7.88118 8.41649,7.88072 8.39789,7.88024 8.37926,7.87978 4.59299,4.0935 4.61162,4.09397 4.63022,4.09445 4.6488,4.09491 4.66734,4.09531 4.68583,4.09563 4.70428,4.09581 4.72266,4.09583 4.74098,4.09565 4.75922,4.09524 4.77739,4.09455 4.79547,4.09355 4.81345,4.09221 4.83134,4.09049 4.84911,4.08835 4.86678,4.08576 4.88431,4.08268 4.90172,4.07907 4.919,4.07491 4.93612,4.07014 4.9531,4.06474 4.96992,4.05867 4.98658,4.0519 5.00306,4.04439 5.01937,4.03609 5.03549,4.02699 5.05142,4.01703 5.06715,4.00619 5.08267,3.99442 5.09797,3.9817 5.11306,3.96798 5.12791,3.95323 "/>
     <polygon id="_353668536" class="fil1" points="4.59299,4.0935 8.37926,7.87978 8.37824,7.88406 8.37721,7.88833 8.37618,7.8926 8.37514,7.89686 8.37409,7.90111 8.37303,7.90535 8.37196,7.90958 8.37089,7.9138 8.36981,7.91802 8.36873,7.92222 8.36763,7.92642 8.36653,7.93061 8.36542,7.93478 8.3643,7.93895 8.36317,7.94311 8.36204,7.94726 8.3609,7.95141 8.35975,7.95554 8.35859,7.95966 8.35743,7.96377 8.35626,7.96787 8.35508,7.97196 8.35389,7.97604 8.3527,7.98012 8.3515,7.98418 8.35029,7.98823 8.34907,7.99227 8.34785,7.9963 8.34662,8.00032 8.34538,8.00433 8.34413,8.00833 8.34288,8.01232 4.55661,4.22605 4.55787,4.22206 4.55911,4.21806 4.56035,4.21405 4.56158,4.21003 4.56281,4.206 4.56402,4.20196 4.56523,4.19791 4.56643,4.19385 4.56763,4.18977 4.56881,4.18569 4.56999,4.1816 4.57116,4.1775 4.57233,4.17339 4.57348,4.16926 4.57463,4.16513 4.57577,4.16099 4.57691,4.15684 4.57803,4.15268 4.57915,4.14851 4.58026,4.14433 4.58136,4.14015 4.58246,4.13595 4.58355,4.13174 4.58463,4.12753 4.5857,4.12331 4.58676,4.11907 4.58782,4.11483 4.58887,4.11059 4.58991,4.10633 4.59094,4.10206 4.59197,4.09779 "/>
     <polygon id="_353668368" class="fil1" points="4.48493,2.78475 8.2712,6.57102 8.27531,6.57783 8.27938,6.58472 8.28339,6.59168 8.28735,6.59871 8.29126,6.60581 8.29511,6.61298 8.29891,6.62022 8.30265,6.62753 8.30634,6.63491 8.30998,6.64235 8.31357,6.64986 8.31711,6.65744 8.32059,6.66508 8.32402,6.67278 8.3274,6.68055 8.33072,6.68838 8.334,6.69627 8.33722,6.70422 8.34039,6.71223 8.34351,6.7203 8.34658,6.72843 8.34959,6.73661 8.35256,6.74485 8.35548,6.75315 8.35834,6.7615 8.36115,6.76991 8.36391,6.77837 8.36663,6.78688 8.36929,6.79544 8.3719,6.80406 8.37446,6.81272 8.37697,6.82143 4.5907,3.03516 4.58819,3.02644 4.58563,3.01778 4.58302,3.00917 4.58036,3.00061 4.57765,2.99209 4.57489,2.98364 4.57207,2.97523 4.56921,2.96688 4.56629,2.95858 4.56333,2.95034 4.56031,2.94216 4.55724,2.93403 4.55412,2.92596 4.55095,2.91795 4.54773,2.91 4.54446,2.90211 4.54113,2.89428 4.53775,2.88651 4.53432,2.87881 4.53084,2.87117 4.5273,2.86359 4.52372,2.85608 4.52007,2.84864 4.51638,2.84126 4.51264,2.83395 4.50884,2.82671 4.50499,2.81954 4.50108,2.81244 4.49713,2.80541 4.49311,2.79844 4.48905,2.79156 "/>
     <polygon id="_353668560" class="fil1" points="5.14253,3.19112 8.9288,6.97739 8.94544,6.99714 8.96102,7.01758 8.97552,7.03867 8.98894,7.06035 9.00129,7.08259 9.01257,7.10533 9.02277,7.12854 9.0319,7.15216 9.03995,7.17615 9.04693,7.20046 9.05284,7.22506 9.05767,7.24987 9.06143,7.27488 9.06412,7.30002 9.06573,7.32526 9.06626,7.35054 9.06573,7.37582 9.06412,7.40106 9.06143,7.4262 9.05767,7.4512 9.05284,7.47602 9.04693,7.50061 9.03995,7.52493 9.0319,7.54892 9.02277,7.57254 9.01257,7.59574 9.00129,7.61849 8.98894,7.64073 8.97552,7.66241 8.96102,7.6835 8.94544,7.70394 8.9288,7.72369 5.14253,3.93741 5.15918,3.91767 5.17475,3.89723 5.18925,3.87614 5.20267,3.85446 5.21502,3.83222 5.2263,3.80947 5.2365,3.78627 5.24563,3.76265 5.25369,3.73866 5.26067,3.71434 5.26657,3.68975 5.27141,3.66493 5.27517,3.63993 5.27785,3.61478 5.27946,3.58955 5.28,3.56427 5.27946,3.53898 5.27785,3.51375 5.27517,3.48861 5.27141,3.4636 5.26657,3.43878 5.26067,3.41419 5.25369,3.38988 5.24563,3.36589 5.2365,3.34227 5.2263,3.31906 5.21502,3.29631 5.20267,3.27408 5.18925,3.25239 5.17475,3.23131 5.15918,3.21087 "/>
    </g>
    <path id="_357808304" class="fil1" d="M3.14546 2.55411c0.663902,0 1.21399,0.0818268 1.31214,0.188701 0.00127559,-0.000614173 0.00254724,-0.00122835 0.00382283,-0.00184252l0.0235118 0.0437795c0.0442205,0.0722717 0.0792598,0.15722 0.105772,0.250409 0.200413,-0.00464961 0.39522,-0.0207402 0.551831,0.155965 0.183287,0.206787 0.183287,0.539504 0,0.746291 -0.154677,0.17452 -0.350724,0.160823 -0.549543,0.156091 -0.0108189,0.0457283 -0.0229646,0.0900591 -0.036374,0.132543 -0.0627087,0.19865 -0.155031,0.360138 -0.271594,0.442894 0.284614,0.0505315 0.46026,0.119909 0.46026,0.196465 0,0.154571 -0.716035,0.279878 -1.59931,0.279878 -0.883276,0 -1.59931,-0.125307 -1.59931,-0.279878 0,-0.0765197 0.175476,-0.145866 0.459854,-0.196394 -0.115622,-0.0817835 -0.207512,-0.241079 -0.270244,-0.437673 -0.0640197,-0.200638 -0.0995118,-0.442602 -0.0995118,-0.678846 0,-0.287331 0.0525079,-0.570154 0.169866,-0.767122l0.0232677 -0.0444016c0.00119685,0.000555118 0.00238976,0.00111024 0.00358661,0.00166142 0.0986024,-0.106783 0.648445,-0.18852 1.31197,-0.18852zm-0.0446339 -0.872732l0.0953031 0.0886772c-0.100909,0.10872 -0.0412283,0.20848 0.0136654,0.30024 0.0785748,0.131339 0.150681,0.25187 -0.021311,0.38678l-0.0800118 -0.102441c0.0815866,-0.0639961 0.037622,-0.137496 -0.0102913,-0.217579 -0.0789213,-0.131925 -0.164724,-0.275346 0.00264567,-0.455677zm-0.35124 0.0886772c-0.100909,0.10872 -0.0412283,0.20848 0.0136654,0.30024 0.0785709,0.131339 0.150681,0.25187 -0.021311,0.38678l-0.0800118 -0.102441c0.0815866,-0.0639961 0.0376181,-0.137496 -0.0102913,-0.217579 -0.0789252,-0.131925 -0.164724,-0.275346 0.00264567,-0.455677l0.0953031 0.0886772zm0.893087 0c-0.100909,0.10872 -0.0412283,0.20848 0.0136654,0.30024 0.0785748,0.131339 0.150685,0.251866 -0.0213071,0.38678l-0.0800157 -0.102441c0.0815866,-0.0639961 0.037622,-0.137496 -0.0102913,-0.217579 -0.0789213,-0.131925 -0.164724,-0.275346 0.00264567,-0.455677l0.0953031 0.0886772z"/>
   </g>
  </g>
  <path class="fil2" d="M3.41333 -3.93701e-006c1.88513,0 3.41333,1.5282 3.41333,3.41333 0,1.88513 -1.5282,3.41333 -3.41333,3.41333 -1.88513,0 -3.41333,-1.5282 -3.41333,-3.41333 0,-1.88513 1.5282,-3.41333 3.41333,-3.41333z"/>
  <path class="fil3" d="M3.14546 2.55411c0.73328,0 1.32772,0.0998228 1.32772,0.222961 0,0.123138 -0.559894,0.43524 -1.29317,0.43524 -0.73328,0 -1.36226,-0.312102 -1.36226,-0.43524 0,-0.123138 0.594437,-0.222961 1.32772,-0.222961z"/>
  <path class="fil4" d="M4.16429 2.92148c0.0902165,0.0721378 -0.454197,0.158819 -1.01449,0.158819 -0.560283,0 -0.983012,-0.0728543 -1.01448,-0.158819 -0.0813268,-0.222177 1.69558,-0.266591 2.02897,0z"/>
  <path class="fil5" d="M4.14604 2.97837c-0.0136693,0.0873898 -0.454197,0.158819 -1.01448,0.158819 -0.560291,0 -1.02836,-0.0714409 -1.01449,-0.158819 0.0446929,-0.281551 2.0728,-0.280118 2.02897,0z"/>
  <ellipse class="fil6" cx="3.14597" cy="4.86541" rx="1.59931" ry="0.279876"/>
  <path class="fil7" d="M4.52747 3.03601c0.222346,0 0.44202,-0.0401299 0.615063,0.155114 0.183287,0.206787 0.183287,0.539504 0,0.746291 -0.172618,0.19476 -0.39676,0.155114 -0.61878,0.155114l0 -0.159937c0.175571,0 0.386547,0.040689 0.518555,-0.108256 0.127917,-0.144315 0.127917,-0.375819 0,-0.520134 -0.131642,-0.148535 -0.339945,-0.10826 -0.514839,-0.10826l0 -0.159933z"/>
  <path class="fil8" d="M4.46142 2.74097l0.0235118 0.0437795c0.117587,0.192169 0.170252,0.473984 0.170252,0.76198 0,0.236043 -0.035126,0.478343 -0.0985669,0.679319 -0.0664921,0.210642 -0.166287,0.3795 -0.292965,0.457012 -0.261752,0.16015 -1.95772,0.165677 -2.23273,0.00183858 -0.127134,-0.075752 -0.227559,-0.243331 -0.294642,-0.453559 -0.0640197,-0.200638 -0.0995118,-0.442602 -0.0995118,-0.678846 0,-0.287331 0.0525079,-0.570154 0.169866,-0.767122l0.0232677 -0.0444016c0.866571,0.402047 1.74303,0.428929 2.63152,0z"/>
  <path class="fil9" d="M2.74958 1.77006c-0.100909,0.10872 -0.0412283,0.20848 0.0136654,0.30024 0.0785709,0.131339 0.150681,0.25187 -0.021311,0.38678l-0.0800118 -0.102441c0.0815866,-0.0639961 0.0376181,-0.137496 -0.0102913,-0.217579 -0.0789252,-0.131925 -0.164724,-0.275346 0.00264567,-0.455677l0.0953031 0.0886772zm0.893087 0c-0.100909,0.10872 -0.0412283,0.20848 0.0136654,0.30024 0.0785748,0.131339 0.150685,0.251866 -0.0213071,0.38678l-0.0800157 -0.102441c0.0815866,-0.0639961 0.037622,-0.137496 -0.0102913,-0.217579 -0.0789213,-0.131925 -0.164724,-0.275346 0.00264567,-0.455677l0.0953031 0.0886772zm-0.446543 0c-0.100909,0.10872 -0.0412283,0.20848 0.0136654,0.30024 0.0785748,0.131339 0.150681,0.25187 -0.021311,0.38678l-0.0800118 -0.102441c0.0815866,-0.0639961 0.037622,-0.137496 -0.0102913,-0.217579 -0.0789213,-0.131925 -0.164724,-0.275346 0.00264567,-0.455677l0.0953031 0.0886772z"/>
 </g>
</svg>
