<svg height="64px" width="64px" version="1.1" id="Layer_1" xmlns="http://www.w3.org/2000/svg" xmlns:xlink="http://www.w3.org/1999/xlink" viewBox="0 0 512 512" xml:space="preserve" fill="#000000"><g id="SVGRepo_bgCarrier" stroke-width="0"></g><g id="SVGRepo_tracerCarrier" stroke-linecap="round" stroke-linejoin="round"></g><g id="SVGRepo_iconCarrier"> <g transform="translate(1 1)"> <g> <path style="fill:#FFE100;" d="M420.973,195.267H397.08c4.267,0,8.533,4.267,7.68,10.24L387.693,426.52 c0,5.12-3.413,8.533-7.68,8.533h20.48c5.12,0,8.533-3.413,9.387-8.533l20.48-221.013 C430.36,199.533,426.093,195.267,420.973,195.267"></path> <path style="fill:#FFE100;" d="M371.48,434.2l-5.12,60.587c0,4.267-3.413,7.68-6.827,7.68h18.773c4.267,0,8.533-3.413,8.533-7.68 l5.973-60.587H371.48z"></path> <polygon style="fill:#FFE100;" points="392.813,127 387.693,195.267 411.587,195.267 418.413,127 "></polygon> <path style="fill:#FFE100;" d="M444.013,75.8h-25.6c5.12,0,8.533,3.413,8.533,8.533v34.133c0,5.12-3.413,8.533-8.533,8.533h25.6 c5.12,0,8.533-3.413,8.533-8.533V84.333C452.547,79.213,448.28,75.8,444.013,75.8"></path> <path style="fill:#FFE100;" d="M366.36,10.947c-0.853-2.56-4.267-3.413-6.827-3.413h-20.48c1.707,0,4.267,0.853,5.12,3.413 l38.4,64.853h34.133L366.36,10.947z"></path> </g> <path style="fill:#FDCC00;" d="M359.533,425.667L376.6,204.653c0-5.12-3.413-10.24-7.68-10.24H122.307 c-4.267,0-8.533,4.267-7.68,10.24l17.067,221.013c0,5.12,3.413,8.533,7.68,8.533h212.48 C355.267,434.2,358.68,430.787,359.533,425.667"></path> <path style="fill:#FFFFFF;" d="M130.84,425.667l-17.067-221.013c0-5.12,3.413-9.387,8.533-9.387H97.56 c-5.12,0-10.24,4.267-9.387,10.24l20.48,220.16c0.853,5.12,4.267,8.533,9.387,8.533h20.48 C135.107,434.2,131.693,430.787,130.84,425.667"></path> <path style="fill:#FFA800;" d="M392.813,195.267H368.92c4.267,0,8.533,4.267,7.68,10.24L359.533,426.52 c0,5.12-3.413,8.533-7.68,8.533h20.48c5.12,0,8.533-3.413,9.387-8.533l20.48-221.013 C402.2,199.533,397.933,195.267,392.813,195.267"></path> <path style="fill:#5d0e0e;" d="M304.92,314.733c0-46.933-31.573-85.333-72.533-85.333s-72.533,38.4-72.533,85.333 s31.573,85.333,72.533,85.333S304.92,361.667,304.92,314.733"></path> <path style="fill:#b80f0f;" d="M245.187,229.4c-2.56,0-4.267,0-6.827,0c38.4,3.413,66.56,40.107,66.56,85.333 s-28.16,81.92-66.56,85.333c2.56,0,4.267,0,6.827,0c48.64,0,85.333-38.4,85.333-85.333S293.827,229.4,245.187,229.4"></path> <g> <path style="fill:#FFA800;" d="M344.173,434.2l-5.12,60.587c0,4.267-3.413,7.68-6.827,7.68H351c4.267,0,8.533-3.413,8.533-7.68 l5.12-60.587H344.173z"></path> <polygon style="fill:#FFA800;" points="364.653,127 359.533,195.267 384.28,195.267 390.253,127 "></polygon> </g> <g> <polygon style="fill:#FFE100;" points="367.213,195.267 372.333,127 118.04,127 123.16,195.267 "></polygon> <path style="fill:#FFE100;" d="M141.933,434.2l5.12,60.587c0,4.267,3.413,7.68,6.827,7.68h183.467c3.413,0,6.827-3.413,7.68-7.68 l4.267-60.587H141.933z"></path> </g> <g> <polygon style="fill:#FFFFFF;" points="92.44,127 99.267,195.267 124.013,195.267 118.04,127 "></polygon> <path style="fill:#FFFFFF;" d="M147.053,494.787l-5.12-60.587h-20.48l5.973,60.587c0,4.267,4.267,7.68,8.533,7.68h18.773 C150.467,502.467,147.053,499.053,147.053,494.787"></path> </g> <path style="fill:#FFE100;" d="M390.253,127H100.12c-5.12,0-8.533-3.413-8.533-8.533V84.333c0-5.12,3.413-8.533,8.533-8.533 h290.133c5.12,0,8.533,3.413,8.533,8.533v34.133C398.787,123.587,395.373,127,390.253,127"></path> <path style="fill:#FFFFFF;" d="M91.587,118.467V84.333c0-5.12,3.413-8.533,8.533-8.533h-25.6c-5.12,0-8.533,3.413-8.533,8.533 v34.133c0,5.12,3.413,8.533,8.533,8.533h25.6C95,127,91.587,123.587,91.587,118.467"></path> <path style="fill:#FFA800;" d="M415.853,75.8h-25.6c5.12,0,8.533,3.413,8.533,8.533v34.133c0,5.12-3.413,8.533-8.533,8.533h25.6 c5.12,0,8.533-3.413,8.533-8.533V84.333C424.387,79.213,420.973,75.8,415.853,75.8"></path> <path style="fill:#FFFFFF;" d="M185.453,7.533h-20.48c-2.56,0-5.12,0.853-6.827,3.413L107.8,75.8h34.133l38.4-64.853 C181.187,8.387,183.747,7.533,185.453,7.533"></path> <path style="fill:#FFE100;" d="M311.747,7.533h-133.12c-1.707,0-4.267,0.853-5.12,3.413l-38.4,64.853h220.16l-38.4-64.853 C316.013,8.387,314.307,7.533,311.747,7.533"></path> <path style="fill:#FFA800;" d="M339.053,10.947c-1.707-2.56-4.267-3.413-7.68-3.413h-20.48c1.707,0,4.267,0.853,5.12,3.413 l38.4,64.853h34.133L339.053,10.947z"></path> <path d="M415.853,135.533H74.52c-9.387,0-17.067-7.68-17.067-17.067V84.333c0-9.387,7.68-17.067,17.067-17.067h341.333 c9.387,0,17.067,7.68,17.067,17.067v34.133C432.92,127.853,425.24,135.533,415.853,135.533z M74.52,84.333v34.133h341.333V84.333 H74.52z"></path> <path d="M406.467,84.333H83.907l60.587-78.507C147.907,1.56,153.027-1,158.147-1H333.08c5.12,0,10.24,2.56,13.653,6.827 L406.467,84.333z M118.04,67.267h253.44l-39.253-51.2h-174.08L118.04,67.267z"></path> <path d="M245.187,408.6c-52.907,0-93.867-40.96-93.867-93.867s40.96-93.867,93.867-93.867s93.867,40.96,93.867,93.867 S298.093,408.6,245.187,408.6z M245.187,237.933c-43.52,0-76.8,34.133-76.8,76.8s34.133,76.8,76.8,76.8s76.8-34.133,76.8-76.8 S288.707,237.933,245.187,237.933z"></path> <path d="M245.187,374.467c-33.28,0-59.733-26.453-59.733-59.733c0-5.12,3.413-8.533,8.533-8.533s8.533,3.413,8.533,8.533 c0,23.893,18.773,42.667,42.667,42.667c5.12,0,8.533,3.413,8.533,8.533S250.307,374.467,245.187,374.467z"></path> <path d="M372.333,442.733H118.04c-9.387,0-17.067-6.827-17.92-16.213l-12.8-136.533c-0.853-4.267,3.413-8.533,7.68-9.387 c5.12-0.853,8.533,3.413,9.387,7.68l12.8,136.533c0,0,0,0.853,0.853,0.853h253.44c0.853,0,0.853,0,0.853-0.853l20.48-221.013v0 H97.56l-0.853,0.853l3.413,32.427c0.853,5.12-3.413,8.533-7.68,9.387c-5.12,0-9.387-3.413-9.387-7.68L79.64,206.36 c-0.853-5.12,0.853-9.387,4.267-13.653c3.413-3.413,8.533-5.973,13.653-5.973h295.253c5.12,0,10.24,1.707,13.653,5.973 c3.413,3.413,5.12,8.533,4.267,13.653l-20.48,220.16C389.4,435.907,381.72,442.733,372.333,442.733z"></path> <path d="M103.533,263.533c0-5.12-3.413-8.533-8.533-8.533c-5.12,0-8.533,3.413-8.533,8.533c0,5.12,3.413,8.533,8.533,8.533 C100.12,272.067,103.533,268.653,103.533,263.533"></path> <path d="M399.64,203.8H90.733l-7.68-85.333H407.32L399.64,203.8z M106.093,186.733h277.333l5.12-51.2h-286.72L106.093,186.733z"></path> <path d="M355.267,511h-220.16c-9.387,0-16.213-6.827-17.067-15.36l-6.827-69.973h267.093l-6.827,69.973 C371.48,504.173,364.653,511,355.267,511z M129.987,442.733l5.12,51.2h220.16l5.12-51.2H129.987z"></path> </g> </g></svg>